<svg width="345" height="100" viewBox="0 0 345 100" fill="none" xmlns="http://www.w3.org/2000/svg">
<rect x="0.75" y="0.75" width="343.5" height="98.5" rx="24.25" fill="white" fill-opacity="0.1"/>
<rect x="0.75" y="0.75" width="343.5" height="98.5" rx="24.25" stroke="white" stroke-width="1.5"/>
<rect x="20" y="20" width="60" height="60" rx="15" fill="#CE5AED"/>
<path d="M50 40C55.5228 40 60 44.4772 60 50C60 55.5228 55.5228 60 50 60C44.4772 60 40 55.5228 40 50C40 44.4772 44.4772 40 50 40ZM50 43.5996C49.5029 43.5996 49.0996 44.0029 49.0996 44.5V50C49.0996 50.2387 49.1945 50.4679 49.3633 50.6367L52.3633 53.6367L52.4316 53.6982C52.7851 53.9867 53.3072 53.9663 53.6367 53.6367C53.9663 53.3072 53.9867 52.7851 53.6982 52.4316L53.6367 52.3633L50.9004 49.627V44.5C50.9004 44.0029 50.4971 43.5996 50 43.5996Z" fill="white"/>
<path d="M99.446 34.68C98.582 34.68 97.846 34.492 97.238 34.116C96.63 33.736 96.164 33.208 95.84 32.532C95.52 31.856 95.36 31.072 95.36 30.18C95.36 29.288 95.52 28.504 95.84 27.828C96.164 27.152 96.63 26.626 97.238 26.25C97.846 25.87 98.582 25.68 99.446 25.68C100.442 25.68 101.266 25.932 101.918 26.436C102.574 26.94 103.03 27.618 103.286 28.47L102.014 28.812C101.846 28.208 101.546 27.734 101.114 27.39C100.686 27.046 100.13 26.874 99.446 26.874C98.834 26.874 98.324 27.012 97.916 27.288C97.508 27.564 97.2 27.95 96.992 28.446C96.788 28.942 96.686 29.52 96.686 30.18C96.682 30.84 96.782 31.418 96.986 31.914C97.194 32.41 97.502 32.796 97.91 33.072C98.322 33.348 98.834 33.486 99.446 33.486C100.13 33.486 100.686 33.314 101.114 32.97C101.546 32.622 101.846 32.148 102.014 31.548L103.286 31.89C103.03 32.742 102.574 33.42 101.918 33.924C101.266 34.428 100.442 34.68 99.446 34.68ZM104.846 34.5V25.86H111.716V34.5H110.462V27.042H106.1V34.5H104.846ZM113.64 34.5V25.86H119.16V27.042H114.894V29.466H118.44V30.648H114.894V33.318H119.16V34.5H113.64ZM127.489 35.778V34.5H120.841V25.86H122.095V33.372H126.547V26.022H127.801V33.372H128.743V35.778H127.489ZM136.739 34.5H135.467V28.074L131.213 34.5H129.941V25.86H131.213V32.28L135.467 25.86H136.739V34.5ZM138.053 34.5L140.861 25.86H142.667L145.475 34.5H144.173L141.587 26.616H141.911L139.355 34.5H138.053ZM139.511 32.55V31.374H144.023V32.55H139.511ZM146.59 34.5V33.426C146.794 33.446 146.962 33.436 147.094 33.396C147.23 33.352 147.344 33.268 147.436 33.144C147.528 33.016 147.606 32.832 147.67 32.592C147.738 32.352 147.804 32.042 147.868 31.662C147.956 31.178 148.03 30.68 148.09 30.168C148.15 29.656 148.2 29.148 148.24 28.644C148.284 28.136 148.32 27.646 148.348 27.174C148.376 26.702 148.398 26.264 148.414 25.86H154.084V34.5H152.83V27.042H149.59C149.57 27.362 149.546 27.72 149.518 28.116C149.49 28.512 149.456 28.932 149.416 29.376C149.376 29.82 149.326 30.278 149.266 30.75C149.21 31.222 149.138 31.696 149.05 32.172C148.978 32.58 148.89 32.948 148.786 33.276C148.682 33.604 148.542 33.878 148.366 34.098C148.19 34.314 147.96 34.458 147.676 34.53C147.392 34.606 147.03 34.596 146.59 34.5ZM156.002 34.5V25.86H157.256V28.962H159.494C159.574 28.962 159.676 28.966 159.8 28.974C159.928 28.978 160.046 28.99 160.154 29.01C160.634 29.086 161.034 29.25 161.354 29.502C161.678 29.754 161.92 30.072 162.08 30.456C162.244 30.84 162.326 31.266 162.326 31.734C162.326 32.198 162.246 32.622 162.086 33.006C161.926 33.39 161.684 33.708 161.36 33.96C161.04 34.212 160.638 34.376 160.154 34.452C160.046 34.468 159.93 34.48 159.806 34.488C159.682 34.496 159.578 34.5 159.494 34.5H156.002ZM157.256 33.318H159.446C159.522 33.318 159.608 33.314 159.704 33.306C159.804 33.298 159.898 33.282 159.986 33.258C160.246 33.198 160.452 33.088 160.604 32.928C160.76 32.764 160.872 32.578 160.94 32.37C161.012 32.158 161.048 31.946 161.048 31.734C161.048 31.522 161.012 31.31 160.94 31.098C160.872 30.886 160.76 30.7 160.604 30.54C160.452 30.376 160.246 30.264 159.986 30.204C159.898 30.18 159.804 30.166 159.704 30.162C159.608 30.154 159.522 30.15 159.446 30.15H157.256V33.318ZM163.889 34.5V25.86H165.143V29.586H169.463V25.86H170.723V34.5H169.463V30.768H165.143V34.5H163.889ZM176.254 34.68C175.39 34.68 174.654 34.492 174.046 34.116C173.438 33.736 172.972 33.208 172.648 32.532C172.328 31.856 172.168 31.072 172.168 30.18C172.168 29.288 172.328 28.504 172.648 27.828C172.972 27.152 173.438 26.626 174.046 26.25C174.654 25.87 175.39 25.68 176.254 25.68C177.114 25.68 177.848 25.87 178.456 26.25C179.068 26.626 179.534 27.152 179.854 27.828C180.174 28.504 180.334 29.288 180.334 30.18C180.334 31.072 180.174 31.856 179.854 32.532C179.534 33.208 179.068 33.736 178.456 34.116C177.848 34.492 177.114 34.68 176.254 34.68ZM176.254 33.486C176.866 33.494 177.374 33.36 177.778 33.084C178.186 32.804 178.492 32.416 178.696 31.92C178.9 31.42 179.002 30.84 179.002 30.18C179.002 29.52 178.9 28.944 178.696 28.452C178.492 27.956 178.186 27.57 177.778 27.294C177.374 27.018 176.866 26.878 176.254 26.874C175.642 26.866 175.132 27 174.724 27.276C174.32 27.552 174.016 27.94 173.812 28.44C173.608 28.94 173.504 29.52 173.5 30.18C173.496 30.84 173.596 31.418 173.8 31.914C174.004 32.406 174.31 32.79 174.718 33.066C175.13 33.342 175.642 33.482 176.254 33.486ZM181.771 34.5V25.86H187.291V27.042H183.025V29.466H186.571V30.648H183.025V33.318H187.291V34.5H181.771ZM191.615 34.5V25.86H198.485V34.5H197.231V27.042H192.869V34.5H191.615ZM200.409 34.5V25.86H203.901C203.985 25.86 204.089 25.864 204.213 25.872C204.337 25.876 204.455 25.888 204.567 25.908C205.047 25.984 205.447 26.148 205.767 26.4C206.091 26.652 206.333 26.97 206.493 27.354C206.653 27.738 206.733 28.162 206.733 28.626C206.733 29.094 206.653 29.52 206.493 29.904C206.333 30.288 206.091 30.606 205.767 30.858C205.447 31.11 205.047 31.274 204.567 31.35C204.455 31.366 204.335 31.378 204.207 31.386C204.083 31.394 203.981 31.398 203.901 31.398H201.663V34.5H200.409ZM201.663 30.21H203.853C203.933 30.21 204.021 30.206 204.117 30.198C204.217 30.19 204.311 30.176 204.399 30.156C204.655 30.096 204.861 29.986 205.017 29.826C205.173 29.662 205.285 29.474 205.353 29.262C205.421 29.05 205.455 28.838 205.455 28.626C205.455 28.414 205.421 28.204 205.353 27.996C205.285 27.784 205.173 27.598 205.017 27.438C204.861 27.274 204.655 27.162 204.399 27.102C204.311 27.078 204.217 27.062 204.117 27.054C204.021 27.046 203.933 27.042 203.853 27.042H201.663V30.21ZM208.173 34.5V25.86H213.693V27.042H209.427V29.466H212.973V30.648H209.427V33.318H213.693V34.5H208.173ZM214.936 35.94V33.318C215.232 33.318 215.476 33.244 215.668 33.096C215.86 32.944 216.012 32.738 216.124 32.478C216.24 32.214 216.328 31.914 216.388 31.578C216.452 31.242 216.5 30.888 216.532 30.516C216.58 30.012 216.62 29.52 216.652 29.04C216.688 28.556 216.72 28.056 216.748 27.54C216.78 27.024 216.814 26.462 216.85 25.854L222.382 25.86V33.318H223.024V35.94H221.764V34.5H216.19V35.94H214.936ZM216.994 33.318H221.128V27.042L218.008 27.036C217.98 27.476 217.956 27.894 217.936 28.29C217.916 28.686 217.89 29.086 217.858 29.49C217.83 29.89 217.794 30.32 217.75 30.78C217.706 31.22 217.66 31.594 217.612 31.902C217.564 32.206 217.492 32.47 217.396 32.694C217.304 32.918 217.17 33.126 216.994 33.318ZM223.978 34.5V33.426C224.182 33.446 224.35 33.436 224.482 33.396C224.618 33.352 224.732 33.268 224.824 33.144C224.916 33.016 224.994 32.832 225.058 32.592C225.126 32.352 225.192 32.042 225.256 31.662C225.344 31.178 225.418 30.68 225.478 30.168C225.538 29.656 225.588 29.148 225.628 28.644C225.672 28.136 225.708 27.646 225.736 27.174C225.764 26.702 225.786 26.264 225.802 25.86H231.472V34.5H230.218V27.042H226.978C226.958 27.362 226.934 27.72 226.906 28.116C226.878 28.512 226.844 28.932 226.804 29.376C226.764 29.82 226.714 30.278 226.654 30.75C226.598 31.222 226.526 31.696 226.438 32.172C226.366 32.58 226.278 32.948 226.174 33.276C226.07 33.604 225.93 33.878 225.754 34.098C225.578 34.314 225.348 34.458 225.064 34.53C224.78 34.606 224.418 34.596 223.978 34.5ZM237.003 34.68C236.139 34.68 235.403 34.492 234.795 34.116C234.187 33.736 233.721 33.208 233.397 32.532C233.077 31.856 232.917 31.072 232.917 30.18C232.917 29.288 233.077 28.504 233.397 27.828C233.721 27.152 234.187 26.626 234.795 26.25C235.403 25.87 236.139 25.68 237.003 25.68C237.863 25.68 238.597 25.87 239.205 26.25C239.817 26.626 240.283 27.152 240.603 27.828C240.923 28.504 241.083 29.288 241.083 30.18C241.083 31.072 240.923 31.856 240.603 32.532C240.283 33.208 239.817 33.736 239.205 34.116C238.597 34.492 237.863 34.68 237.003 34.68ZM237.003 33.486C237.615 33.494 238.123 33.36 238.527 33.084C238.935 32.804 239.241 32.416 239.445 31.92C239.649 31.42 239.751 30.84 239.751 30.18C239.751 29.52 239.649 28.944 239.445 28.452C239.241 27.956 238.935 27.57 238.527 27.294C238.123 27.018 237.615 26.878 237.003 26.874C236.391 26.866 235.881 27 235.473 27.276C235.069 27.552 234.765 27.94 234.561 28.44C234.357 28.94 234.253 29.52 234.249 30.18C234.245 30.84 234.345 31.418 234.549 31.914C234.753 32.406 235.059 32.79 235.467 33.066C235.879 33.342 236.391 33.482 237.003 33.486ZM241.202 34.5L244.646 30.078L241.484 25.86H243.002L245.9 29.814V25.86H247.154V29.814L250.052 25.86H251.57L248.408 30.078L251.852 34.5H250.28L247.154 30.45V34.5H245.9V30.45L242.768 34.5H241.202ZM253.048 34.5V25.86H258.568V27.042H254.302V29.466H257.848V30.648H254.302V33.318H258.568V34.5H253.048ZM260.249 34.5V25.86H261.503V29.586H265.823V25.86H267.083V34.5H265.823V30.768H261.503V34.5H260.249ZM275.807 34.5H274.535V28.074L270.281 34.5H269.009V25.86H270.281V32.28L274.535 25.86H275.807V34.5ZM277.722 34.5V25.86H283.242V27.042H278.976V29.466H282.522V30.648H278.976V33.318H283.242V34.5H277.722Z" fill="#464646"/>
<path d="M95.9035 55.5V48.48H101.487V55.5H100.532V49.3965H96.859V55.5H95.9035ZM106.282 55.695C105.597 55.695 105.004 55.5433 104.501 55.24C104.003 54.9367 103.615 54.5098 103.337 53.9595C103.06 53.4092 102.921 52.7635 102.921 52.0225C102.921 51.2555 103.058 50.5925 103.331 50.0335C103.604 49.4745 103.987 49.0433 104.481 48.74C104.98 48.4367 105.567 48.285 106.243 48.285C106.936 48.285 107.528 48.4453 108.017 48.766C108.507 49.0823 108.878 49.5373 109.129 50.131C109.38 50.7247 109.495 51.4332 109.473 52.2565H108.498V51.9185C108.481 51.0085 108.284 50.3217 107.907 49.858C107.534 49.3943 106.988 49.1625 106.269 49.1625C105.515 49.1625 104.936 49.4073 104.533 49.897C104.135 50.3867 103.935 51.0843 103.935 51.99C103.935 52.874 104.135 53.5608 104.533 54.0505C104.936 54.5358 105.506 54.7785 106.243 54.7785C106.746 54.7785 107.183 54.6637 107.556 54.434C107.933 54.2 108.23 53.8642 108.446 53.4265L109.337 53.771C109.06 54.382 108.65 54.8565 108.108 55.1945C107.571 55.5282 106.962 55.695 106.282 55.695ZM103.597 52.2565V51.457H108.96V52.2565H103.597ZM114.068 55.695C113.423 55.695 112.877 55.5325 112.43 55.2075C111.984 54.8782 111.646 54.434 111.416 53.875C111.187 53.3117 111.072 52.6812 111.072 51.9835C111.072 51.2728 111.187 50.6402 111.416 50.0855C111.65 49.5265 111.993 49.0867 112.443 48.766C112.894 48.4453 113.449 48.285 114.107 48.285C114.749 48.285 115.299 48.4475 115.758 48.7725C116.218 49.0975 116.569 49.5395 116.811 50.0985C117.058 50.6575 117.182 51.2858 117.182 51.9835C117.182 52.6855 117.058 53.316 116.811 53.875C116.564 54.434 116.209 54.8782 115.745 55.2075C115.282 55.5325 114.723 55.695 114.068 55.695ZM110.909 58.62V48.48H111.767V53.7645H111.871V58.62H110.909ZM113.971 54.8045C114.461 54.8045 114.868 54.681 115.193 54.434C115.518 54.187 115.761 53.8512 115.921 53.4265C116.086 52.9975 116.168 52.5165 116.168 51.9835C116.168 51.4548 116.088 50.9782 115.927 50.5535C115.767 50.1288 115.522 49.793 115.193 49.546C114.868 49.299 114.454 49.1755 113.951 49.1755C113.462 49.1755 113.054 49.2947 112.729 49.533C112.409 49.7713 112.168 50.1028 112.008 50.5275C111.848 50.9478 111.767 51.4332 111.767 51.9835C111.767 52.5252 111.848 53.0105 112.008 53.4395C112.168 53.8642 112.411 54.1978 112.736 54.4405C113.061 54.6832 113.473 54.8045 113.971 54.8045ZM118.603 55.5V48.48H121.495C121.643 48.48 121.82 48.4887 122.028 48.506C122.241 48.5233 122.438 48.5558 122.62 48.6035C123.014 48.7075 123.33 48.9198 123.569 49.2405C123.811 49.5612 123.933 49.9468 123.933 50.3975C123.933 50.6488 123.894 50.8742 123.816 51.0735C123.742 51.2685 123.636 51.4375 123.497 51.5805C123.432 51.6542 123.361 51.7192 123.283 51.7755C123.205 51.8275 123.129 51.8708 123.055 51.9055C123.194 51.9315 123.343 51.9922 123.504 52.0875C123.755 52.2348 123.946 52.4342 124.076 52.6855C124.206 52.9325 124.271 53.2337 124.271 53.589C124.271 54.07 124.156 54.4622 123.926 54.7655C123.697 55.0688 123.389 55.2768 123.003 55.3895C122.83 55.4372 122.641 55.4675 122.438 55.4805C122.238 55.4935 122.05 55.5 121.872 55.5H118.603ZM119.565 54.6875H121.827C121.918 54.6875 122.033 54.681 122.171 54.668C122.31 54.6507 122.433 54.629 122.542 54.603C122.797 54.538 122.984 54.408 123.101 54.213C123.222 54.0137 123.283 53.797 123.283 53.563C123.283 53.2553 123.192 53.004 123.01 52.809C122.832 52.6097 122.594 52.4883 122.295 52.445C122.195 52.4233 122.091 52.4103 121.983 52.406C121.874 52.4017 121.777 52.3995 121.69 52.3995H119.565V54.6875ZM119.565 51.5805H121.528C121.64 51.5805 121.766 51.574 121.905 51.561C122.048 51.5437 122.171 51.5155 122.275 51.4765C122.501 51.3985 122.665 51.2642 122.769 51.0735C122.878 50.8828 122.932 50.6748 122.932 50.4495C122.932 50.2025 122.873 49.9858 122.756 49.7995C122.644 49.6132 122.472 49.4832 122.243 49.4095C122.087 49.3532 121.918 49.3207 121.736 49.312C121.558 49.3033 121.445 49.299 121.398 49.299H119.565V51.5805ZM125.573 55.5L125.56 48.48H126.522V51.1255H127.744C127.947 51.1255 128.147 51.1298 128.342 51.1385C128.537 51.1472 128.712 51.1645 128.868 51.1905C129.215 51.2598 129.523 51.3768 129.791 51.5415C130.06 51.7062 130.272 51.9337 130.428 52.224C130.584 52.51 130.662 52.8718 130.662 53.3095C130.662 53.9118 130.506 54.3863 130.194 54.733C129.882 55.0797 129.49 55.305 129.018 55.409C128.84 55.448 128.647 55.474 128.439 55.487C128.231 55.4957 128.028 55.5 127.828 55.5H125.573ZM126.522 54.681H127.789C127.932 54.681 128.095 54.6767 128.277 54.668C128.459 54.6593 128.619 54.6355 128.758 54.5965C128.992 54.5315 129.202 54.4015 129.388 54.2065C129.579 54.0072 129.674 53.7082 129.674 53.3095C129.674 52.9152 129.583 52.6183 129.401 52.419C129.219 52.2153 128.977 52.081 128.673 52.016C128.535 51.9857 128.387 51.9662 128.231 51.9575C128.08 51.9488 127.932 51.9445 127.789 51.9445H126.522V54.681ZM131.501 55.5V48.48H132.456V55.5H131.501ZM137.187 47.648C136.88 47.648 136.598 47.5722 136.342 47.4205C136.087 47.2688 135.883 47.0673 135.731 46.816C135.584 46.5603 135.51 46.2787 135.51 45.971H136.303C136.303 46.2137 136.39 46.4217 136.563 46.595C136.737 46.7683 136.945 46.855 137.187 46.855C137.434 46.855 137.642 46.7683 137.811 46.595C137.985 46.4217 138.071 46.2137 138.071 45.971H138.864C138.864 46.2787 138.788 46.5603 138.637 46.816C138.489 47.0673 138.288 47.2688 138.032 47.4205C137.777 47.5722 137.495 47.648 137.187 47.648ZM139.852 48.48V55.5H138.923V50.0335L135.075 55.5H134.269V48.48H135.198V53.901L139.053 48.48H139.852ZM144.273 55.5V48.48H145.124L147.861 54.226L150.604 48.48H151.449V55.5H150.526V50.521L148.166 55.5H147.562L145.202 50.521V55.5H144.273ZM156.238 55.695C155.553 55.695 154.96 55.5433 154.457 55.24C153.959 54.9367 153.571 54.5098 153.293 53.9595C153.016 53.4092 152.877 52.7635 152.877 52.0225C152.877 51.2555 153.014 50.5925 153.287 50.0335C153.56 49.4745 153.943 49.0433 154.437 48.74C154.936 48.4367 155.523 48.285 156.199 48.285C156.892 48.285 157.484 48.4453 157.973 48.766C158.463 49.0823 158.834 49.5373 159.085 50.131C159.336 50.7247 159.451 51.4332 159.429 52.2565H158.454V51.9185C158.437 51.0085 158.24 50.3217 157.863 49.858C157.49 49.3943 156.944 49.1625 156.225 49.1625C155.471 49.1625 154.892 49.4073 154.489 49.897C154.091 50.3867 153.891 51.0843 153.891 51.99C153.891 52.874 154.091 53.5608 154.489 54.0505C154.892 54.5358 155.462 54.7785 156.199 54.7785C156.702 54.7785 157.139 54.6637 157.512 54.434C157.889 54.2 158.186 53.8642 158.402 53.4265L159.293 53.771C159.016 54.382 158.606 54.8565 158.064 55.1945C157.527 55.5282 156.918 55.695 156.238 55.695ZM153.553 52.2565V51.457H158.916V52.2565H153.553ZM163.784 55.695C163.078 55.695 162.48 55.5368 161.99 55.2205C161.5 54.9042 161.128 54.4687 160.872 53.914C160.621 53.355 160.491 52.7137 160.482 51.99C160.491 51.2533 160.625 50.6077 160.885 50.053C161.145 49.494 161.52 49.0607 162.009 48.753C162.499 48.441 163.093 48.285 163.79 48.285C164.501 48.285 165.119 48.4583 165.643 48.805C166.172 49.1517 166.533 49.6262 166.728 50.2285L165.792 50.5275C165.628 50.1072 165.366 49.7822 165.006 49.5525C164.651 49.3185 164.243 49.2015 163.784 49.2015C163.268 49.2015 162.841 49.3207 162.503 49.559C162.165 49.793 161.914 50.1202 161.749 50.5405C161.585 50.9608 161.5 51.444 161.496 51.99C161.505 52.8307 161.7 53.5067 162.081 54.018C162.462 54.525 163.03 54.7785 163.784 54.7785C164.261 54.7785 164.666 54.6702 164.999 54.4535C165.337 54.2325 165.593 53.9118 165.766 53.4915L166.728 53.7775C166.468 54.4015 166.087 54.8782 165.584 55.2075C165.082 55.5325 164.482 55.695 163.784 55.695ZM172.433 55.5V52.8545H170.795C170.604 52.8545 170.407 52.848 170.203 52.835C170.004 52.8177 169.817 52.7938 169.644 52.7635C169.15 52.6682 168.73 52.4515 168.383 52.1135C168.041 51.7712 167.87 51.2988 167.87 50.6965C167.87 50.1072 168.03 49.6348 168.351 49.2795C168.671 48.9198 169.059 48.6858 169.514 48.5775C169.722 48.5298 169.932 48.5017 170.145 48.493C170.361 48.4843 170.548 48.48 170.704 48.48H173.388L173.395 55.5H172.433ZM167.642 55.5L169.599 52.5555H170.658L168.689 55.5H167.642ZM170.743 52.0355H172.433V49.299H170.743C170.639 49.299 170.493 49.3033 170.307 49.312C170.121 49.3207 169.945 49.3488 169.781 49.3965C169.638 49.4398 169.495 49.5157 169.352 49.624C169.213 49.728 169.096 49.8688 169.001 50.0465C168.905 50.2198 168.858 50.4322 168.858 50.6835C168.858 51.0345 168.953 51.3162 169.144 51.5285C169.339 51.7365 169.581 51.8795 169.872 51.9575C170.028 51.9922 170.184 52.0138 170.34 52.0225C170.496 52.0312 170.63 52.0355 170.743 52.0355ZM181.25 56.7155V55.5H175.211V48.48H176.167V54.5835H179.839V48.48H180.795V54.616H182.205V56.7155H181.25ZM185.714 51.8145V50.9955H189.614V51.8145H185.714ZM197.695 55.695C196.763 55.695 195.976 55.4892 195.335 55.0775C194.694 54.6615 194.208 54.0873 193.879 53.355C193.55 52.6227 193.385 51.7777 193.385 50.82C193.385 49.8623 193.55 49.0173 193.879 48.285C194.208 47.5527 194.694 46.9807 195.335 46.569C195.976 46.153 196.763 45.945 197.695 45.945C198.782 45.945 199.671 46.2245 200.36 46.7835C201.049 47.3382 201.521 48.0835 201.777 49.0195L200.802 49.273C200.602 48.532 200.245 47.9448 199.729 47.5115C199.213 47.0782 198.535 46.8615 197.695 46.8615C196.962 46.8615 196.353 47.0283 195.868 47.362C195.383 47.6957 195.017 48.1615 194.77 48.7595C194.527 49.3532 194.401 50.04 194.393 50.82C194.388 51.6 194.507 52.2868 194.75 52.8805C194.997 53.4742 195.365 53.94 195.855 54.278C196.349 54.6117 196.962 54.7785 197.695 54.7785C198.535 54.7785 199.213 54.5618 199.729 54.1285C200.245 53.6908 200.602 53.1037 200.802 52.367L201.777 52.6205C201.521 53.5565 201.049 54.304 200.36 54.863C199.671 55.4177 198.782 55.695 197.695 55.695ZM203.211 55.5V46.14H204.166V50.56L208.437 46.14H209.659L205.297 50.6575L210.016 55.5H208.768L204.166 50.82V55.5H203.211ZM218.008 55.5H217.046V47.8235L211.892 55.5H210.93V46.14H211.892V53.81L217.046 46.14H218.008V55.5ZM219.393 57.06V54.5835C219.757 54.5835 220.05 54.4925 220.271 54.3105C220.492 54.1242 220.661 53.8772 220.778 53.5695C220.895 53.2618 220.984 52.9173 221.044 52.536C221.105 52.1503 221.157 51.7603 221.2 51.366C221.261 50.7897 221.309 50.2328 221.343 49.6955C221.382 49.1582 221.415 48.6013 221.441 48.025C221.471 47.4487 221.506 46.8182 221.545 46.1335L227.317 46.14V54.5835H227.986V57.06H227.037V55.5H220.349V57.06H219.393ZM221.22 54.5835H226.361V47.0565L222.435 47.05C222.409 47.5787 222.383 48.09 222.357 48.584C222.331 49.078 222.301 49.5763 222.266 50.079C222.232 50.5817 222.186 51.106 222.13 51.652C222.082 52.1503 222.026 52.5858 221.961 52.9585C221.896 53.3312 221.805 53.6497 221.688 53.914C221.575 54.1783 221.419 54.4015 221.22 54.5835ZM229.414 55.5V46.14H230.369V50.56L234.64 46.14H235.862L231.5 50.6575L236.219 55.5H234.971L230.369 50.82V55.5H229.414ZM236.483 55.5L239.707 46.14H240.974L244.198 55.5H243.204L240.142 46.673H240.519L237.477 55.5H236.483ZM237.919 53.2315V52.3345H242.755V53.2315H237.919ZM247.714 55.4935L247.721 54.6225L251.952 50.8005C252.316 50.4712 252.557 50.1592 252.674 49.8645C252.795 49.5655 252.856 49.2535 252.856 48.9285C252.856 48.5428 252.765 48.194 252.583 47.882C252.401 47.57 252.156 47.323 251.848 47.141C251.541 46.9547 251.196 46.8615 250.815 46.8615C250.416 46.8615 250.061 46.9568 249.749 47.1475C249.437 47.3382 249.19 47.5895 249.008 47.9015C248.83 48.2135 248.744 48.5537 248.748 48.922H247.773C247.773 48.3543 247.907 47.8452 248.176 47.3945C248.445 46.9438 248.809 46.5907 249.268 46.335C249.727 46.075 250.247 45.945 250.828 45.945C251.396 45.945 251.905 46.0793 252.355 46.348C252.81 46.6123 253.168 46.972 253.428 47.427C253.692 47.8777 253.824 48.3803 253.824 48.935C253.824 49.325 253.777 49.6695 253.681 49.9685C253.59 50.2632 253.445 50.5383 253.246 50.794C253.051 51.0453 252.802 51.3053 252.498 51.574L248.741 54.967L248.592 54.577H253.824V55.4935H247.714ZM258.444 55.695C257.867 55.695 257.347 55.5607 256.884 55.292C256.424 55.0233 256.06 54.6593 255.792 54.2C255.523 53.7363 255.389 53.2163 255.389 52.64V49C255.389 48.4237 255.523 47.9058 255.792 47.4465C256.06 46.9828 256.424 46.6167 256.884 46.348C257.347 46.0793 257.867 45.945 258.444 45.945C259.02 45.945 259.538 46.0793 259.997 46.348C260.461 46.6167 260.827 46.9828 261.096 47.4465C261.364 47.9058 261.499 48.4237 261.499 49V52.64C261.499 53.2163 261.364 53.7363 261.096 54.2C260.827 54.6593 260.461 55.0233 259.997 55.292C259.538 55.5607 259.02 55.695 258.444 55.695ZM258.444 54.772C258.829 54.772 259.18 54.6788 259.497 54.4925C259.813 54.3018 260.064 54.0483 260.251 53.732C260.437 53.4157 260.53 53.0668 260.53 52.6855V48.9545C260.53 48.5688 260.437 48.2178 260.251 47.9015C260.064 47.5852 259.813 47.3338 259.497 47.1475C259.18 46.9568 258.829 46.8615 258.444 46.8615C258.058 46.8615 257.707 46.9568 257.391 47.1475C257.074 47.3338 256.823 47.5852 256.637 47.9015C256.45 48.2178 256.357 48.5688 256.357 48.9545V52.6855C256.357 53.0668 256.45 53.4157 256.637 53.732C256.823 54.0483 257.074 54.3018 257.391 54.4925C257.707 54.6788 258.058 54.772 258.444 54.772ZM264.233 55.5L263.583 54.85L272.313 46.14L272.963 46.7835L264.233 55.5ZM271.013 55.695C270.584 55.695 270.191 55.591 269.836 55.383C269.485 55.1707 269.203 54.889 268.991 54.538C268.779 54.1827 268.673 53.7883 268.673 53.355C268.673 52.9303 268.781 52.5403 268.998 52.185C269.214 51.8297 269.5 51.5458 269.856 51.3335C270.211 51.1212 270.597 51.015 271.013 51.015C271.442 51.015 271.834 51.1212 272.189 51.3335C272.544 51.5415 272.826 51.8232 273.034 52.1785C273.246 52.5295 273.353 52.9217 273.353 53.355C273.353 53.7883 273.246 54.1827 273.034 54.538C272.826 54.889 272.544 55.1707 272.189 55.383C271.834 55.591 271.442 55.695 271.013 55.695ZM271.013 54.8305C271.277 54.8305 271.522 54.7633 271.747 54.629C271.972 54.4947 272.152 54.317 272.287 54.096C272.421 53.8707 272.488 53.6237 272.488 53.355C272.488 53.0863 272.421 52.8415 272.287 52.6205C272.152 52.3952 271.972 52.2153 271.747 52.081C271.522 51.9467 271.277 51.8795 271.013 51.8795C270.744 51.8795 270.497 51.9467 270.272 52.081C270.051 52.2153 269.871 52.3952 269.732 52.6205C269.598 52.8415 269.531 53.0863 269.531 53.355C269.531 53.6237 269.598 53.8707 269.732 54.096C269.871 54.317 270.051 54.4947 270.272 54.629C270.497 54.7633 270.744 54.8305 271.013 54.8305ZM265.533 50.625C265.104 50.625 264.712 50.521 264.357 50.313C264.001 50.1007 263.717 49.819 263.505 49.468C263.297 49.1127 263.193 48.7183 263.193 48.285C263.193 47.8603 263.301 47.4703 263.518 47.115C263.735 46.7597 264.021 46.4758 264.376 46.2635C264.731 46.0512 265.117 45.945 265.533 45.945C265.962 45.945 266.352 46.0512 266.703 46.2635C267.058 46.4715 267.342 46.7532 267.555 47.1085C267.767 47.4595 267.873 47.8517 267.873 48.285C267.873 48.7183 267.767 49.1127 267.555 49.468C267.342 49.819 267.058 50.1007 266.703 50.313C266.352 50.521 265.962 50.625 265.533 50.625ZM265.533 49.7605C265.802 49.7605 266.047 49.6933 266.268 49.559C266.493 49.4247 266.673 49.247 266.807 49.026C266.941 48.8007 267.009 48.5537 267.009 48.285C267.009 48.0163 266.941 47.7715 266.807 47.5505C266.673 47.3252 266.493 47.1453 266.268 47.011C266.047 46.8767 265.802 46.8095 265.533 46.8095C265.264 46.8095 265.017 46.8767 264.792 47.011C264.571 47.1453 264.393 47.3252 264.259 47.5505C264.125 47.7715 264.058 48.0163 264.058 48.285C264.058 48.5537 264.125 48.8007 264.259 49.026C264.393 49.247 264.571 49.4247 264.792 49.559C265.017 49.6933 265.264 49.7605 265.533 49.7605ZM277.637 55.5V48.48H278.592V51.5285H282.551V48.48H283.506V55.5H282.551V52.445H278.592V55.5H277.637ZM287.333 55.695C286.804 55.695 286.36 55.5997 286 55.409C285.645 55.2183 285.378 54.9648 285.201 54.6485C285.023 54.3322 284.934 53.9877 284.934 53.615C284.934 53.2337 285.01 52.9087 285.162 52.64C285.318 52.367 285.528 52.1438 285.792 51.9705C286.061 51.7972 286.371 51.665 286.722 51.574C287.077 51.4873 287.469 51.4115 287.898 51.3465C288.331 51.2772 288.754 51.2187 289.166 51.171C289.582 51.119 289.946 51.0692 290.258 51.0215L289.92 51.2295C289.933 50.5362 289.798 50.0227 289.517 49.689C289.235 49.3553 288.745 49.1885 288.048 49.1885C287.567 49.1885 287.159 49.2968 286.826 49.5135C286.496 49.7302 286.264 50.0725 286.13 50.5405L285.201 50.2675C285.361 49.6392 285.684 49.1517 286.169 48.805C286.654 48.4583 287.285 48.285 288.061 48.285C288.702 48.285 289.246 48.4063 289.692 48.649C290.143 48.8873 290.461 49.234 290.648 49.689C290.734 49.8927 290.791 50.1202 290.817 50.3715C290.843 50.6228 290.856 50.8785 290.856 51.1385V55.5H290.004V53.7385L290.251 53.8425C290.013 54.4448 289.642 54.9042 289.14 55.2205C288.637 55.5368 288.035 55.695 287.333 55.695ZM287.443 54.8695C287.889 54.8695 288.279 54.7893 288.613 54.629C288.947 54.4687 289.215 54.2498 289.419 53.9725C289.623 53.6908 289.755 53.3745 289.816 53.0235C289.868 52.7982 289.896 52.5512 289.9 52.2825C289.904 52.0095 289.907 51.8058 289.907 51.6715L290.271 51.86C289.946 51.9033 289.592 51.9467 289.211 51.99C288.834 52.0333 288.461 52.0832 288.093 52.1395C287.729 52.1958 287.4 52.263 287.105 52.341C286.906 52.3973 286.713 52.4775 286.527 52.5815C286.34 52.6812 286.186 52.8155 286.065 52.9845C285.948 53.1535 285.89 53.3637 285.89 53.615C285.89 53.8187 285.939 54.0158 286.039 54.2065C286.143 54.3972 286.308 54.5553 286.533 54.681C286.763 54.8067 287.066 54.8695 287.443 54.8695ZM101.487 65.48V72.5H100.558V67.0335L96.7095 72.5H95.9035V65.48H96.833V70.901L100.688 65.48H101.487ZM106.223 72.695C105.517 72.695 104.919 72.5368 104.429 72.2205C103.94 71.9042 103.567 71.4687 103.311 70.914C103.06 70.355 102.93 69.7137 102.921 68.99C102.93 68.2533 103.064 67.6077 103.324 67.053C103.584 66.494 103.959 66.0607 104.449 65.753C104.939 65.441 105.532 65.285 106.23 65.285C106.941 65.285 107.558 65.4583 108.082 65.805C108.611 66.1517 108.973 66.6262 109.168 67.2285L108.232 67.5275C108.067 67.1072 107.805 66.7822 107.445 66.5525C107.09 66.3185 106.683 66.2015 106.223 66.2015C105.708 66.2015 105.281 66.3207 104.943 66.559C104.605 66.793 104.354 67.1202 104.189 67.5405C104.024 67.9608 103.94 68.444 103.935 68.99C103.944 69.8307 104.139 70.5067 104.52 71.018C104.902 71.525 105.469 71.7785 106.223 71.7785C106.7 71.7785 107.105 71.6702 107.439 71.4535C107.777 71.2325 108.033 70.9118 108.206 70.4915L109.168 70.7775C108.908 71.4015 108.527 71.8782 108.024 72.2075C107.521 72.5325 106.921 72.695 106.223 72.695ZM110.503 72.5V65.48H116.087V72.5H115.131V66.3965H111.459V72.5H110.503ZM120.842 72.695C120.145 72.695 119.549 72.5368 119.055 72.2205C118.561 71.9042 118.182 71.4665 117.917 70.9075C117.653 70.3485 117.521 69.7072 117.521 68.9835C117.521 68.2468 117.655 67.6012 117.924 67.0465C118.193 66.4918 118.574 66.0607 119.068 65.753C119.566 65.441 120.158 65.285 120.842 65.285C121.544 65.285 122.142 65.4432 122.636 65.7595C123.135 66.0715 123.514 66.507 123.774 67.066C124.038 67.6207 124.17 68.2598 124.17 68.9835C124.17 69.7202 124.038 70.368 123.774 70.927C123.51 71.4817 123.128 71.915 122.63 72.227C122.132 72.539 121.536 72.695 120.842 72.695ZM120.842 71.7785C121.622 71.7785 122.203 71.5207 122.584 71.005C122.966 70.485 123.156 69.8112 123.156 68.9835C123.156 68.1342 122.964 67.4582 122.578 66.9555C122.197 66.4528 121.618 66.2015 120.842 66.2015C120.318 66.2015 119.885 66.3207 119.542 66.559C119.204 66.793 118.951 67.1202 118.782 67.5405C118.617 67.9565 118.535 68.4375 118.535 68.9835C118.535 69.8285 118.73 70.5067 119.12 71.018C119.51 71.525 120.084 71.7785 120.842 71.7785ZM124.954 72.5V71.6615C125.214 71.7092 125.412 71.6983 125.546 71.629C125.685 71.5553 125.786 71.434 125.851 71.265C125.916 71.0917 125.971 70.8772 126.014 70.6215C126.083 70.1968 126.146 69.7288 126.202 69.2175C126.259 68.7062 126.309 68.1428 126.352 67.5275C126.4 66.9078 126.447 66.2253 126.495 65.48H131.266V72.5H130.317V66.3965H127.379C127.349 66.8558 127.314 67.313 127.275 67.768C127.236 68.223 127.195 68.6607 127.151 69.081C127.112 69.497 127.069 69.8805 127.021 70.2315C126.974 70.5825 126.924 70.8858 126.872 71.1415C126.794 71.5272 126.69 71.8348 126.56 72.0645C126.434 72.2942 126.246 72.4458 125.994 72.5195C125.743 72.5932 125.396 72.5867 124.954 72.5ZM133.088 72.5L133.075 65.48H134.037V68.1255H135.682C135.886 68.1255 136.085 68.1298 136.28 68.1385C136.479 68.1472 136.655 68.1645 136.806 68.1905C137.153 68.2555 137.461 68.3703 137.729 68.535C138.002 68.6997 138.215 68.9272 138.366 69.2175C138.522 69.5078 138.6 69.8718 138.6 70.3095C138.6 70.9118 138.444 71.3863 138.132 71.733C137.825 72.0797 137.435 72.305 136.962 72.409C136.785 72.448 136.592 72.474 136.384 72.487C136.176 72.4957 135.97 72.5 135.766 72.5H133.088ZM134.037 71.681H135.727C135.875 71.681 136.039 71.6767 136.221 71.668C136.403 71.6593 136.564 71.6355 136.702 71.5965C136.932 71.5315 137.14 71.4015 137.326 71.2065C137.517 71.0072 137.612 70.7082 137.612 70.3095C137.612 69.9152 137.521 69.6183 137.339 69.419C137.157 69.2153 136.915 69.081 136.611 69.016C136.477 68.9857 136.332 68.9662 136.176 68.9575C136.02 68.9488 135.87 68.9445 135.727 68.9445H134.037V71.681ZM142.555 72.695C141.848 72.695 141.231 72.5412 140.702 72.2335C140.178 71.9215 139.764 71.4903 139.461 70.94L140.228 70.4525C140.483 70.8858 140.802 71.2152 141.183 71.4405C141.565 71.6658 142.002 71.7785 142.496 71.7785C143.012 71.7785 143.426 71.6593 143.738 71.421C144.05 71.1827 144.206 70.8555 144.206 70.4395C144.206 70.1535 144.139 69.926 144.004 69.757C143.874 69.588 143.675 69.4667 143.406 69.393C143.142 69.3193 142.81 69.2825 142.412 69.2825H141.58V68.4635H142.399C142.884 68.4635 143.274 68.3768 143.569 68.2035C143.868 68.0258 144.017 67.7485 144.017 67.3715C144.017 66.9728 143.868 66.6782 143.569 66.4875C143.274 66.2925 142.921 66.195 142.509 66.195C142.093 66.195 141.699 66.2817 141.326 66.455C140.958 66.624 140.648 66.8428 140.397 67.1115L139.786 66.468C140.137 66.0823 140.546 65.7898 141.014 65.5905C141.487 65.3868 142.009 65.285 142.581 65.285C143.031 65.285 143.439 65.3652 143.803 65.5255C144.171 65.6815 144.461 65.9112 144.674 66.2145C144.89 66.5178 144.999 66.8818 144.999 67.3065C144.999 67.7052 144.901 68.0497 144.706 68.34C144.516 68.6303 144.245 68.8708 143.894 69.0615L143.842 68.704C144.145 68.7603 144.396 68.8817 144.596 69.068C144.795 69.2543 144.942 69.4775 145.038 69.7375C145.133 69.9975 145.181 70.2618 145.181 70.5305C145.181 70.9768 145.064 71.3625 144.83 71.6875C144.6 72.0082 144.286 72.2573 143.887 72.435C143.493 72.6083 143.049 72.695 142.555 72.695ZM149.547 72.695C148.849 72.695 148.253 72.5368 147.759 72.2205C147.265 71.9042 146.886 71.4665 146.622 70.9075C146.357 70.3485 146.225 69.7072 146.225 68.9835C146.225 68.2468 146.359 67.6012 146.628 67.0465C146.897 66.4918 147.278 66.0607 147.772 65.753C148.27 65.441 148.862 65.285 149.547 65.285C150.249 65.285 150.847 65.4432 151.341 65.7595C151.839 66.0715 152.218 66.507 152.478 67.066C152.742 67.6207 152.875 68.2598 152.875 68.9835C152.875 69.7202 152.742 70.368 152.478 70.927C152.214 71.4817 151.832 71.915 151.334 72.227C150.836 72.539 150.24 72.695 149.547 72.695ZM149.547 71.7785C150.327 71.7785 150.907 71.5207 151.289 71.005C151.67 70.485 151.861 69.8112 151.861 68.9835C151.861 68.1342 151.668 67.4582 151.282 66.9555C150.901 66.4528 150.322 66.2015 149.547 66.2015C149.022 66.2015 148.589 66.3207 148.247 66.559C147.909 66.793 147.655 67.1202 147.486 67.5405C147.321 67.9565 147.239 68.4375 147.239 68.9835C147.239 69.8285 147.434 70.5067 147.824 71.018C148.214 71.525 148.788 71.7785 149.547 71.7785ZM154.302 72.5V65.48H157.194C157.342 65.48 157.519 65.4887 157.727 65.506C157.94 65.5233 158.137 65.5558 158.319 65.6035C158.713 65.7075 159.03 65.9198 159.268 66.2405C159.511 66.5612 159.632 66.9468 159.632 67.3975C159.632 67.6488 159.593 67.8742 159.515 68.0735C159.441 68.2685 159.335 68.4375 159.196 68.5805C159.131 68.6542 159.06 68.7192 158.982 68.7755C158.904 68.8275 158.828 68.8708 158.754 68.9055C158.893 68.9315 159.043 68.9922 159.203 69.0875C159.454 69.2348 159.645 69.4342 159.775 69.6855C159.905 69.9325 159.97 70.2337 159.97 70.589C159.97 71.07 159.855 71.4622 159.625 71.7655C159.396 72.0688 159.088 72.2768 158.702 72.3895C158.529 72.4372 158.341 72.4675 158.137 72.4805C157.938 72.4935 157.749 72.5 157.571 72.5H154.302ZM155.264 71.6875H157.526C157.617 71.6875 157.732 71.681 157.87 71.668C158.009 71.6507 158.133 71.629 158.241 71.603C158.497 71.538 158.683 71.408 158.8 71.213C158.921 71.0137 158.982 70.797 158.982 70.563C158.982 70.2553 158.891 70.004 158.709 69.809C158.531 69.6097 158.293 69.4883 157.994 69.445C157.894 69.4233 157.79 69.4103 157.682 69.406C157.574 69.4017 157.476 69.3995 157.389 69.3995H155.264V71.6875ZM155.264 68.5805H157.227C157.34 68.5805 157.465 68.574 157.604 68.561C157.747 68.5437 157.87 68.5155 157.974 68.4765C158.2 68.3985 158.364 68.2642 158.468 68.0735C158.577 67.8828 158.631 67.6748 158.631 67.4495C158.631 67.2025 158.572 66.9858 158.455 66.7995C158.343 66.6132 158.172 66.4832 157.942 66.4095C157.786 66.3532 157.617 66.3207 157.435 66.312C157.257 66.3033 157.145 66.299 157.097 66.299H155.264V68.5805ZM163.274 72.695C162.745 72.695 162.301 72.5997 161.941 72.409C161.586 72.2183 161.32 71.9648 161.142 71.6485C160.964 71.3322 160.875 70.9877 160.875 70.615C160.875 70.2337 160.951 69.9087 161.103 69.64C161.259 69.367 161.469 69.1438 161.733 68.9705C162.002 68.7972 162.312 68.665 162.663 68.574C163.018 68.4873 163.41 68.4115 163.839 68.3465C164.273 68.2772 164.695 68.2187 165.107 68.171C165.523 68.119 165.887 68.0692 166.199 68.0215L165.861 68.2295C165.874 67.5362 165.74 67.0227 165.458 66.689C165.176 66.3553 164.687 66.1885 163.989 66.1885C163.508 66.1885 163.101 66.2968 162.767 66.5135C162.438 66.7302 162.206 67.0725 162.071 67.5405L161.142 67.2675C161.302 66.6392 161.625 66.1517 162.11 65.805C162.596 65.4583 163.226 65.285 164.002 65.285C164.643 65.285 165.187 65.4063 165.633 65.649C166.084 65.8873 166.403 66.234 166.589 66.689C166.676 66.8927 166.732 67.1202 166.758 67.3715C166.784 67.6228 166.797 67.8785 166.797 68.1385V72.5H165.945V70.7385L166.192 70.8425C165.954 71.4448 165.584 71.9042 165.081 72.2205C164.578 72.5368 163.976 72.695 163.274 72.695ZM163.384 71.8695C163.831 71.8695 164.221 71.7893 164.554 71.629C164.888 71.4687 165.157 71.2498 165.36 70.9725C165.564 70.6908 165.696 70.3745 165.757 70.0235C165.809 69.7982 165.837 69.5512 165.841 69.2825C165.846 69.0095 165.848 68.8058 165.848 68.6715L166.212 68.86C165.887 68.9033 165.534 68.9467 165.152 68.99C164.775 69.0333 164.403 69.0832 164.034 69.1395C163.67 69.1958 163.341 69.263 163.046 69.341C162.847 69.3973 162.654 69.4775 162.468 69.5815C162.282 69.6812 162.128 69.8155 162.006 69.9845C161.889 70.1535 161.831 70.3637 161.831 70.615C161.831 70.8187 161.881 71.0158 161.98 71.2065C162.084 71.3972 162.249 71.5553 162.474 71.681C162.704 71.8067 163.007 71.8695 163.384 71.8695ZM168.483 72.5V65.48H169.438V68.5285H173.397V65.48H174.352V72.5H173.397V69.445H169.438V72.5H168.483ZM181.747 65.48V72.5H180.817V67.0335L176.969 72.5H176.163V65.48H177.093V70.901L180.947 65.48H181.747ZM186.542 72.695C185.857 72.695 185.263 72.5433 184.761 72.24C184.262 71.9367 183.874 71.5098 183.597 70.9595C183.32 70.4092 183.181 69.7635 183.181 69.0225C183.181 68.2555 183.318 67.5925 183.591 67.0335C183.864 66.4745 184.247 66.0433 184.741 65.74C185.239 65.4367 185.827 65.285 186.503 65.285C187.196 65.285 187.787 65.4453 188.277 65.766C188.767 66.0823 189.137 66.5373 189.389 67.131C189.64 67.7247 189.755 68.4332 189.733 69.2565H188.758V68.9185C188.741 68.0085 188.544 67.3217 188.167 66.858C187.794 66.3943 187.248 66.1625 186.529 66.1625C185.775 66.1625 185.196 66.4073 184.793 66.897C184.394 67.3867 184.195 68.0843 184.195 68.99C184.195 69.874 184.394 70.5608 184.793 71.0505C185.196 71.5358 185.766 71.7785 186.503 71.7785C187.005 71.7785 187.443 71.6637 187.816 71.434C188.193 71.2 188.489 70.8642 188.706 70.4265L189.597 70.771C189.319 71.382 188.91 71.8565 188.368 72.1945C187.831 72.5282 187.222 72.695 186.542 72.695ZM183.857 69.2565V68.457H189.22V69.2565H183.857ZM196.69 72.695C195.984 72.695 195.386 72.5368 194.896 72.2205C194.406 71.9042 194.034 71.4687 193.778 70.914C193.527 70.355 193.397 69.7137 193.388 68.99C193.397 68.2533 193.531 67.6077 193.791 67.053C194.051 66.494 194.426 66.0607 194.916 65.753C195.405 65.441 195.999 65.285 196.697 65.285C197.407 65.285 198.025 65.4583 198.549 65.805C199.078 66.1517 199.44 66.6262 199.635 67.2285L198.699 67.5275C198.534 67.1072 198.272 66.7822 197.912 66.5525C197.557 66.3185 197.149 66.2015 196.69 66.2015C196.174 66.2015 195.748 66.3207 195.41 66.559C195.072 66.793 194.82 67.1202 194.656 67.5405C194.491 67.9608 194.406 68.444 194.402 68.99C194.411 69.8307 194.606 70.5067 194.987 71.018C195.368 71.525 195.936 71.7785 196.69 71.7785C197.167 71.7785 197.572 71.6702 197.906 71.4535C198.244 71.2325 198.499 70.9118 198.673 70.4915L199.635 70.7775C199.375 71.4015 198.993 71.8782 198.491 72.2075C197.988 72.5325 197.388 72.695 196.69 72.695ZM203.947 72.695C203.262 72.695 202.669 72.5433 202.166 72.24C201.668 71.9367 201.28 71.5098 201.002 70.9595C200.725 70.4092 200.586 69.7635 200.586 69.0225C200.586 68.2555 200.723 67.5925 200.996 67.0335C201.269 66.4745 201.652 66.0433 202.146 65.74C202.645 65.4367 203.232 65.285 203.908 65.285C204.601 65.285 205.193 65.4453 205.682 65.766C206.172 66.0823 206.543 66.5373 206.794 67.131C207.045 67.7247 207.16 68.4332 207.138 69.2565H206.163V68.9185C206.146 68.0085 205.949 67.3217 205.572 66.858C205.199 66.3943 204.653 66.1625 203.934 66.1625C203.18 66.1625 202.601 66.4073 202.198 66.897C201.8 67.3867 201.6 68.0843 201.6 68.99C201.6 69.874 201.8 70.5608 202.198 71.0505C202.601 71.5358 203.171 71.7785 203.908 71.7785C204.411 71.7785 204.848 71.6637 205.221 71.434C205.598 71.2 205.895 70.8642 206.111 70.4265L207.002 70.771C206.725 71.382 206.315 71.8565 205.773 72.1945C205.236 72.5282 204.627 72.695 203.947 72.695ZM201.262 69.2565V68.457H206.625V69.2565H201.262ZM211.733 72.695C211.088 72.695 210.542 72.5325 210.095 72.2075C209.649 71.8782 209.311 71.434 209.081 70.875C208.852 70.3117 208.737 69.6812 208.737 68.9835C208.737 68.2728 208.852 67.6402 209.081 67.0855C209.315 66.5265 209.658 66.0867 210.108 65.766C210.559 65.4453 211.114 65.285 211.772 65.285C212.414 65.285 212.964 65.4475 213.423 65.7725C213.883 66.0975 214.234 66.5395 214.476 67.0985C214.723 67.6575 214.847 68.2858 214.847 68.9835C214.847 69.6855 214.723 70.316 214.476 70.875C214.229 71.434 213.874 71.8782 213.41 72.2075C212.947 72.5325 212.388 72.695 211.733 72.695ZM208.574 75.62V65.48H209.432V70.7645H209.536V75.62H208.574ZM211.636 71.8045C212.126 71.8045 212.533 71.681 212.858 71.434C213.183 71.187 213.426 70.8512 213.586 70.4265C213.751 69.9975 213.833 69.5165 213.833 68.9835C213.833 68.4548 213.753 67.9782 213.592 67.5535C213.432 67.1288 213.187 66.793 212.858 66.546C212.533 66.299 212.119 66.1755 211.616 66.1755C211.127 66.1755 210.719 66.2947 210.394 66.533C210.074 66.7713 209.833 67.1028 209.673 67.5275C209.513 67.9478 209.432 68.4332 209.432 68.9835C209.432 69.5252 209.513 70.0105 209.673 70.4395C209.833 70.8642 210.076 71.1978 210.401 71.4405C210.726 71.6832 211.138 71.8045 211.636 71.8045ZM216.268 72.5V65.48H219.16C219.308 65.48 219.485 65.4887 219.693 65.506C219.906 65.5233 220.103 65.5558 220.285 65.6035C220.679 65.7075 220.995 65.9198 221.234 66.2405C221.476 66.5612 221.598 66.9468 221.598 67.3975C221.598 67.6488 221.559 67.8742 221.481 68.0735C221.407 68.2685 221.301 68.4375 221.162 68.5805C221.097 68.6542 221.026 68.7192 220.948 68.7755C220.87 68.8275 220.794 68.8708 220.72 68.9055C220.859 68.9315 221.008 68.9922 221.169 69.0875C221.42 69.2348 221.611 69.4342 221.741 69.6855C221.871 69.9325 221.936 70.2337 221.936 70.589C221.936 71.07 221.821 71.4622 221.591 71.7655C221.362 72.0688 221.054 72.2768 220.668 72.3895C220.495 72.4372 220.306 72.4675 220.103 72.4805C219.903 72.4935 219.715 72.5 219.537 72.5H216.268ZM217.23 71.6875H219.492C219.583 71.6875 219.698 71.681 219.836 71.668C219.975 71.6507 220.098 71.629 220.207 71.603C220.462 71.538 220.649 71.408 220.766 71.213C220.887 71.0137 220.948 70.797 220.948 70.563C220.948 70.2553 220.857 70.004 220.675 69.809C220.497 69.6097 220.259 69.4883 219.96 69.445C219.86 69.4233 219.756 69.4103 219.648 69.406C219.539 69.4017 219.442 69.3995 219.355 69.3995H217.23V71.6875ZM217.23 68.5805H219.193C219.305 68.5805 219.431 68.574 219.57 68.561C219.713 68.5437 219.836 68.5155 219.94 68.4765C220.166 68.3985 220.33 68.2642 220.434 68.0735C220.543 67.8828 220.597 67.6748 220.597 67.4495C220.597 67.2025 220.538 66.9858 220.421 66.7995C220.309 66.6132 220.137 66.4832 219.908 66.4095C219.752 66.3532 219.583 66.3207 219.401 66.312C219.223 66.3033 219.11 66.299 219.063 66.299H217.23V68.5805ZM228.808 65.48V72.5H227.879V67.0335L224.031 72.5H223.225V65.48H224.154V70.901L228.009 65.48H228.808ZM233.545 72.695C232.838 72.695 232.24 72.5368 231.751 72.2205C231.261 71.9042 230.888 71.4687 230.633 70.914C230.381 70.355 230.251 69.7137 230.243 68.99C230.251 68.2533 230.386 67.6077 230.646 67.053C230.906 66.494 231.28 66.0607 231.77 65.753C232.26 65.441 232.853 65.285 233.551 65.285C234.262 65.285 234.879 65.4583 235.404 65.805C235.932 66.1517 236.294 66.6262 236.489 67.2285L235.553 67.5275C235.388 67.1072 235.126 66.7822 234.767 66.5525C234.411 66.3185 234.004 66.2015 233.545 66.2015C233.029 66.2015 232.602 66.3207 232.264 66.559C231.926 66.793 231.675 67.1202 231.51 67.5405C231.345 67.9608 231.261 68.444 231.257 68.99C231.265 69.8307 231.46 70.5067 231.842 71.018C232.223 71.525 232.791 71.7785 233.545 71.7785C234.021 71.7785 234.426 71.6702 234.76 71.4535C235.098 71.2325 235.354 70.9118 235.527 70.4915L236.489 70.7775C236.229 71.4015 235.848 71.8782 235.345 72.2075C234.842 72.5325 234.242 72.695 233.545 72.695ZM239.801 72.695C239.273 72.695 238.828 72.5997 238.469 72.409C238.113 72.2183 237.847 71.9648 237.669 71.6485C237.492 71.3322 237.403 70.9877 237.403 70.615C237.403 70.2337 237.479 69.9087 237.63 69.64C237.786 69.367 237.996 69.1438 238.261 68.9705C238.529 68.7972 238.839 68.665 239.19 68.574C239.546 68.4873 239.938 68.4115 240.367 68.3465C240.8 68.2772 241.223 68.2187 241.634 68.171C242.05 68.119 242.414 68.0692 242.726 68.0215L242.388 68.2295C242.401 67.5362 242.267 67.0227 241.985 66.689C241.704 66.3553 241.214 66.1885 240.516 66.1885C240.035 66.1885 239.628 66.2968 239.294 66.5135C238.965 66.7302 238.733 67.0725 238.599 67.5405L237.669 67.2675C237.83 66.6392 238.152 66.1517 238.638 65.805C239.123 65.4583 239.754 65.285 240.529 65.285C241.171 65.285 241.714 65.4063 242.161 65.649C242.611 65.8873 242.93 66.234 243.116 66.689C243.203 66.8927 243.259 67.1202 243.285 67.3715C243.311 67.6228 243.324 67.8785 243.324 68.1385V72.5H242.473V70.7385L242.72 70.8425C242.481 71.4448 242.111 71.9042 241.608 72.2205C241.106 72.5368 240.503 72.695 239.801 72.695ZM239.912 71.8695C240.358 71.8695 240.748 71.7893 241.082 71.629C241.415 71.4687 241.684 71.2498 241.888 70.9725C242.091 70.6908 242.224 70.3745 242.284 70.0235C242.336 69.7982 242.364 69.5512 242.369 69.2825C242.373 69.0095 242.375 68.8058 242.375 68.6715L242.739 68.86C242.414 68.9033 242.061 68.9467 241.68 68.99C241.303 69.0333 240.93 69.0832 240.562 69.1395C240.198 69.1958 239.868 69.263 239.574 69.341C239.374 69.3973 239.182 69.4775 238.995 69.5815C238.809 69.6812 238.655 69.8155 238.534 69.9845C238.417 70.1535 238.358 70.3637 238.358 70.615C238.358 70.8187 238.408 71.0158 238.508 71.2065C238.612 71.3972 238.776 71.5553 239.002 71.681C239.231 71.8067 239.535 71.8695 239.912 71.8695Z" fill="#464646"/>
</svg>
