<svg width="138" height="17" viewBox="0 0 138 17" fill="none" xmlns="http://www.w3.org/2000/svg">
<g clip-path="url(#clip0_4044_45)">
<path d="M7.87142 1.94617C8.13253 1.34401 8.98648 1.34401 9.2476 1.94617L10.6512 5.18301C10.8686 5.68424 11.3412 6.02766 11.8851 6.07949L15.3973 6.41416C16.0506 6.47642 16.3145 7.28857 15.8225 7.72298L13.1778 10.0581C12.7683 10.4197 12.5878 10.9754 12.7065 11.5087L13.4736 14.9523C13.6162 15.593 12.9254 16.0949 12.3602 15.7612L9.32209 13.9676C8.85164 13.6898 8.26738 13.6898 7.79692 13.9676L4.75881 15.7612C4.19363 16.0949 3.50277 15.593 3.64546 14.9523L4.41249 11.5087C4.53126 10.9754 4.35071 10.4197 3.94118 10.0581L1.2965 7.72298C0.804504 7.28857 1.06839 6.47642 1.72177 6.41416L5.23392 6.07949C5.77778 6.02766 6.25046 5.68424 6.46781 5.18301L7.87142 1.94617Z" fill="#9EECBC" stroke="black" stroke-width="0.5"/>
<path d="M27.9906 1.94617C28.2517 1.34401 29.1056 1.34401 29.3667 1.94617L30.7703 5.18301C30.9877 5.68424 31.4604 6.02766 32.0042 6.07949L35.5164 6.41416C36.1698 6.47642 36.4337 7.28857 35.9417 7.72298L33.297 10.0581C32.8874 10.4197 32.7069 10.9754 32.8257 11.5087L33.5927 14.9523C33.7354 15.593 33.0445 16.0949 32.4793 15.7612L29.4412 13.9676C28.9708 13.6898 28.3865 13.6898 27.9161 13.9676L24.878 15.7612C24.3128 16.0949 23.6219 15.593 23.7646 14.9523L24.5316 11.5087C24.6504 10.9754 24.4699 10.4197 24.0603 10.0581L21.4156 7.72298C20.9236 7.28857 21.1875 6.47642 21.8409 6.41416L25.3531 6.07949C25.8969 6.02766 26.3696 5.68424 26.587 5.18301L27.9906 1.94617Z" fill="#9EECBC" stroke="black" stroke-width="0.5"/>
<path d="M48.1097 1.94617C48.3708 1.34401 49.2248 1.34401 49.4859 1.94617L50.8895 5.18301C51.1068 5.68424 51.5795 6.02766 52.1234 6.07949L55.6355 6.41416C56.2889 6.47642 56.5528 7.28857 56.0608 7.72298L53.4161 10.0581C53.0066 10.4197 52.826 10.9754 52.9448 11.5087L53.7118 14.9523C53.8545 15.593 53.1637 16.0949 52.5985 15.7612L49.5604 13.9676C49.0899 13.6898 48.5057 13.6898 48.0352 13.9676L44.9971 15.7612C44.4319 16.0949 43.741 15.593 43.8837 14.9523L44.6508 11.5087C44.7695 10.9754 44.589 10.4197 44.1795 10.0581L41.5348 7.72298C41.0428 7.28857 41.3067 6.47642 41.96 6.41416L45.4722 6.07949C46.0161 6.02766 46.4887 5.68424 46.7061 5.18301L48.1097 1.94617Z" fill="#9EECBC" stroke="black" stroke-width="0.5"/>
<path d="M68.2284 1.94617C68.4895 1.34401 69.3434 1.34401 69.6045 1.94617L71.0081 5.18301C71.2255 5.68424 71.6982 6.02766 72.242 6.07949L75.7542 6.41416C76.4076 6.47642 76.6714 7.28857 76.1794 7.72298L73.5348 10.0581C73.1252 10.4197 72.9447 10.9754 73.0635 11.5087L73.8305 14.9523C73.9732 15.593 73.2823 16.0949 72.7171 15.7612L69.679 13.9676C69.2086 13.6898 68.6243 13.6898 68.1539 13.9676L65.1157 15.7612C64.5506 16.0949 63.8597 15.593 64.0024 14.9523L64.7694 11.5087C64.8882 10.9754 64.7076 10.4197 64.2981 10.0581L61.6534 7.72298C61.1614 7.28857 61.4253 6.47642 62.0787 6.41416L65.5909 6.07949C66.1347 6.02766 66.6074 5.68424 66.8247 5.18301L68.2284 1.94617Z" fill="#9EECBC" stroke="black" stroke-width="0.5"/>
<path d="M88.3475 1.94617C88.6086 1.34401 89.4626 1.34401 89.7237 1.94617L91.1273 5.18301C91.3446 5.68424 91.8173 6.02766 92.3612 6.07949L95.8733 6.41416C96.5267 6.47642 96.7906 7.28857 96.2986 7.72298L93.6539 10.0581C93.2444 10.4197 93.0638 10.9754 93.1826 11.5087L93.9496 14.9523C94.0923 15.593 93.4015 16.0949 92.8363 15.7612L89.7982 13.9676C89.3277 13.6898 88.7435 13.6898 88.273 13.9676L85.2349 15.7612C84.6697 16.0949 83.9788 15.593 84.1215 14.9523L84.8886 11.5087C85.0073 10.9754 84.8268 10.4197 84.4173 10.0581L81.7726 7.72298C81.2806 7.28857 81.5445 6.47642 82.1978 6.41416L85.71 6.07949C86.2539 6.02766 86.7265 5.68424 86.9439 5.18301L88.3475 1.94617Z" fill="#9EECBC" stroke="black" stroke-width="0.5"/>
<path d="M108.467 1.94617C108.728 1.34401 109.582 1.34401 109.843 1.94617L111.246 5.18301C111.464 5.68424 111.936 6.02766 112.48 6.07949L115.992 6.41416C116.646 6.47642 116.91 7.28857 116.418 7.72298L113.773 10.0581C113.364 10.4197 113.183 10.9754 113.302 11.5087L114.069 14.9523C114.211 15.593 113.521 16.0949 112.955 15.7612L109.917 13.9676C109.447 13.6898 108.863 13.6898 108.392 13.9676L105.354 15.7612C104.789 16.0949 104.098 15.593 104.241 14.9523L105.008 11.5087C105.126 10.9754 104.946 10.4197 104.536 10.0581L101.892 7.72298C101.4 7.28857 101.664 6.47642 102.317 6.41416L105.829 6.07949C106.373 6.02766 106.846 5.68424 107.063 5.18301L108.467 1.94617Z" fill="#9EECBC" stroke="black" stroke-width="0.5"/>
<path d="M128.585 1.94617C128.846 1.34401 129.7 1.34401 129.961 1.94617L131.365 5.18301C131.582 5.68424 132.055 6.02766 132.599 6.07949L136.111 6.41416C136.764 6.47642 137.028 7.28857 136.536 7.72298L133.892 10.0581C133.482 10.4197 133.302 10.9754 133.42 11.5087L134.187 14.9523C134.33 15.593 133.639 16.0949 133.074 15.7612L130.036 13.9676C129.566 13.6898 128.981 13.6898 128.511 13.9676L125.473 15.7612C124.907 16.0949 124.217 15.593 124.359 14.9523L125.126 11.5087C125.245 10.9754 125.065 10.4197 124.655 10.0581L122.01 7.72298C121.518 7.28857 121.782 6.47642 122.436 6.41416L125.948 6.07949C126.492 6.02766 126.964 5.68424 127.182 5.18301L128.585 1.94617Z" fill="#9EECBC" stroke="black" stroke-width="0.5"/>
</g>
<defs>
<clipPath id="clip0_4044_45">
<rect width="137.833" height="16.2812" fill="white" transform="translate(0 0.359375)"/>
</clipPath>
</defs>
</svg>
