<svg width="351" height="62" viewBox="0 0 351 62" fill="none" xmlns="http://www.w3.org/2000/svg">
<g filter="url(#filter0_dd_6073_190)">
<rect x="3" y="3" width="345" height="54" rx="10" fill="white"/>
<rect width="24" height="24" transform="translate(18 18)" fill="white"/>
<path fill-rule="evenodd" clip-rule="evenodd" d="M41.04 30.2615C41.04 29.446 40.9668 28.6619 40.8309 27.9092H30V32.3576H36.1891C35.9225 33.7951 35.1123 35.013 33.8943 35.8285V38.714H37.6109C39.7855 36.7119 41.04 33.7637 41.04 30.2615Z" fill="#4285F4"/>
<path fill-rule="evenodd" clip-rule="evenodd" d="M29.9995 41.4998C33.1045 41.4998 35.7077 40.47 37.6104 38.7137L33.8938 35.8282C32.864 36.5182 31.5467 36.9259 29.9995 36.9259C27.0042 36.9259 24.469 34.903 23.5647 32.1848H19.7227V35.1644C21.6149 38.9228 25.504 41.4998 29.9995 41.4998Z" fill="#34A853"/>
<path fill-rule="evenodd" clip-rule="evenodd" d="M23.5652 32.185C23.3352 31.495 23.2045 30.7579 23.2045 30C23.2045 29.242 23.3352 28.505 23.5652 27.815V24.8354H19.7232C18.9443 26.3879 18.5 28.1443 18.5 30C18.5 31.8557 18.9443 33.612 19.7232 35.1645L23.5652 32.185Z" fill="#FBBC05"/>
<path fill-rule="evenodd" clip-rule="evenodd" d="M29.9995 23.0739C31.6879 23.0739 33.2038 23.6541 34.3956 24.7936L37.694 21.4952C35.7024 19.6395 33.0992 18.5 29.9995 18.5C25.504 18.5 21.6149 21.077 19.7227 24.8355L23.5647 27.815C24.469 25.0968 27.0042 23.0739 29.9995 23.0739Z" fill="#EA4335"/>
<path d="M65.9258 32.3379C65.9258 32.0449 65.8802 31.7845 65.7891 31.5566C65.7044 31.3288 65.5514 31.1204 65.3301 30.9316C65.1087 30.7428 64.7962 30.5605 64.3926 30.3848C63.9954 30.2025 63.4876 30.0169 62.8691 29.8281C62.1921 29.6198 61.5671 29.3887 60.9941 29.1348C60.4277 28.8743 59.9329 28.5749 59.5098 28.2363C59.0866 27.8913 58.7578 27.4974 58.5234 27.0547C58.2891 26.6055 58.1719 26.0879 58.1719 25.502C58.1719 24.9225 58.2923 24.3952 58.5332 23.9199C58.7806 23.4447 59.1289 23.0345 59.5781 22.6895C60.0339 22.3379 60.571 22.0677 61.1895 21.8789C61.8079 21.6836 62.4915 21.5859 63.2402 21.5859C64.2949 21.5859 65.2031 21.7812 65.9648 22.1719C66.7331 22.5625 67.3223 23.0866 67.7324 23.7441C68.1491 24.4017 68.3574 25.1276 68.3574 25.9219H65.9258C65.9258 25.4531 65.8249 25.0397 65.623 24.6816C65.4277 24.3171 65.1283 24.0306 64.7246 23.8223C64.3275 23.6139 63.8229 23.5098 63.2109 23.5098C62.6315 23.5098 62.1497 23.5977 61.7656 23.7734C61.3815 23.9492 61.0951 24.1868 60.9062 24.4863C60.7174 24.7858 60.623 25.1243 60.623 25.502C60.623 25.7689 60.6849 26.013 60.8086 26.2344C60.9323 26.4492 61.1211 26.651 61.375 26.8398C61.6289 27.0221 61.9479 27.1947 62.332 27.3574C62.7161 27.5202 63.1686 27.6764 63.6895 27.8262C64.4772 28.0605 65.1641 28.321 65.75 28.6074C66.3359 28.8874 66.8242 29.2064 67.2148 29.5645C67.6055 29.9225 67.8984 30.3294 68.0938 30.7852C68.2891 31.2344 68.3867 31.7454 68.3867 32.3184C68.3867 32.9173 68.2663 33.4577 68.0254 33.9395C67.7845 34.4147 67.4395 34.8216 66.9902 35.1602C66.5475 35.4922 66.0137 35.7493 65.3887 35.9316C64.7702 36.1074 64.0801 36.1953 63.3184 36.1953C62.6348 36.1953 61.9609 36.1042 61.2969 35.9219C60.6393 35.7396 60.0404 35.4629 59.5 35.0918C58.9596 34.7142 58.5299 34.2454 58.2109 33.6855C57.8919 33.1191 57.7324 32.4583 57.7324 31.7031H60.1836C60.1836 32.1654 60.2617 32.5592 60.418 32.8848C60.5807 33.2103 60.8053 33.4772 61.0918 33.6855C61.3783 33.8874 61.7103 34.0371 62.0879 34.1348C62.472 34.2324 62.8822 34.2812 63.3184 34.2812C63.8913 34.2812 64.3698 34.1999 64.7539 34.0371C65.1445 33.8743 65.4375 33.6465 65.6328 33.3535C65.8281 33.0605 65.9258 32.722 65.9258 32.3379ZM72.8398 25.4336V36H70.4766V25.4336H72.8398ZM70.3203 22.6602C70.3203 22.3021 70.4375 22.0059 70.6719 21.7715C70.9128 21.5306 71.2448 21.4102 71.668 21.4102C72.0846 21.4102 72.4134 21.5306 72.6543 21.7715C72.8952 22.0059 73.0156 22.3021 73.0156 22.6602C73.0156 23.0117 72.8952 23.3047 72.6543 23.5391C72.4134 23.7734 72.0846 23.8906 71.668 23.8906C71.2448 23.8906 70.9128 23.7734 70.6719 23.5391C70.4375 23.3047 70.3203 23.0117 70.3203 22.6602ZM82.1855 25.4336H84.3242V35.707C84.3242 36.6576 84.1224 37.4648 83.7188 38.1289C83.3151 38.793 82.752 39.2975 82.0293 39.6426C81.3066 39.9941 80.4701 40.1699 79.5195 40.1699C79.1159 40.1699 78.6667 40.1113 78.1719 39.9941C77.6836 39.877 77.2083 39.6882 76.7461 39.4277C76.2904 39.1738 75.9095 38.8385 75.6035 38.4219L76.707 37.0352C77.0846 37.4844 77.5013 37.8132 77.957 38.0215C78.4128 38.2298 78.8913 38.334 79.3926 38.334C79.9329 38.334 80.3919 38.2331 80.7695 38.0312C81.1536 37.8359 81.4499 37.5462 81.6582 37.1621C81.8665 36.778 81.9707 36.3092 81.9707 35.7559V27.8262L82.1855 25.4336ZM75.0078 30.834V30.6289C75.0078 29.8281 75.1055 29.099 75.3008 28.4414C75.4961 27.7773 75.776 27.2077 76.1406 26.7324C76.5052 26.2507 76.9479 25.8828 77.4688 25.6289C77.9896 25.3685 78.5788 25.2383 79.2363 25.2383C79.9199 25.2383 80.5026 25.362 80.9844 25.6094C81.4727 25.8568 81.8796 26.2116 82.2051 26.6738C82.5306 27.1296 82.7845 27.6764 82.9668 28.3145C83.1556 28.946 83.2956 29.6491 83.3867 30.4238V31.0781C83.3021 31.8333 83.1589 32.5234 82.957 33.1484C82.7552 33.7734 82.4883 34.3138 82.1562 34.7695C81.8242 35.2253 81.4141 35.5768 80.9258 35.8242C80.444 36.0716 79.8743 36.1953 79.2168 36.1953C78.5723 36.1953 77.9896 36.0618 77.4688 35.7949C76.9544 35.528 76.5117 35.1536 76.1406 34.6719C75.776 34.1901 75.4961 33.6237 75.3008 32.9727C75.1055 32.3151 75.0078 31.6022 75.0078 30.834ZM77.3613 30.6289V30.834C77.3613 31.3158 77.4069 31.765 77.498 32.1816C77.5957 32.5983 77.7422 32.9661 77.9375 33.2852C78.1393 33.5977 78.3932 33.8451 78.6992 34.0273C79.0117 34.2031 79.3796 34.291 79.8027 34.291C80.3561 34.291 80.8086 34.1738 81.1602 33.9395C81.5182 33.7051 81.7917 33.3893 81.9805 32.9922C82.1758 32.5885 82.3125 32.1393 82.3906 31.6445V29.877C82.3516 29.4928 82.2702 29.1348 82.1465 28.8027C82.0293 28.4707 81.8698 28.181 81.668 27.9336C81.4661 27.6797 81.2122 27.4844 80.9062 27.3477C80.6003 27.2044 80.2389 27.1328 79.8223 27.1328C79.3991 27.1328 79.0312 27.224 78.7188 27.4062C78.4062 27.5885 78.1491 27.8392 77.9473 28.1582C77.752 28.4772 77.6055 28.8483 77.5078 29.2715C77.4102 29.6947 77.3613 30.1471 77.3613 30.6289ZM89.0996 27.6895V36H86.7461V25.4336H88.9629L89.0996 27.6895ZM88.6797 30.3262L87.918 30.3164C87.9245 29.5677 88.0286 28.8809 88.2305 28.2559C88.4388 27.6309 88.7253 27.0938 89.0898 26.6445C89.4609 26.1953 89.9036 25.8503 90.418 25.6094C90.9323 25.362 91.5052 25.2383 92.1367 25.2383C92.6445 25.2383 93.1035 25.3099 93.5137 25.4531C93.9303 25.5898 94.2852 25.8145 94.5781 26.127C94.8776 26.4395 95.1055 26.8464 95.2617 27.3477C95.418 27.8424 95.4961 28.4512 95.4961 29.1738V36H93.1328V29.1641C93.1328 28.6562 93.0579 28.2559 92.9082 27.9629C92.765 27.6634 92.5534 27.4518 92.2734 27.3281C92 27.1979 91.6582 27.1328 91.248 27.1328C90.8444 27.1328 90.4831 27.2174 90.1641 27.3867C89.8451 27.556 89.5749 27.7871 89.3535 28.0801C89.1387 28.373 88.9727 28.7116 88.8555 29.0957C88.7383 29.4798 88.6797 29.89 88.6797 30.3262ZM105.73 21.7812V36H103.279V21.7812H105.73ZM110.877 27.6895V36H108.523V25.4336H110.74L110.877 27.6895ZM110.457 30.3262L109.695 30.3164C109.702 29.5677 109.806 28.8809 110.008 28.2559C110.216 27.6309 110.503 27.0938 110.867 26.6445C111.238 26.1953 111.681 25.8503 112.195 25.6094C112.71 25.362 113.283 25.2383 113.914 25.2383C114.422 25.2383 114.881 25.3099 115.291 25.4531C115.708 25.5898 116.062 25.8145 116.355 26.127C116.655 26.4395 116.883 26.8464 117.039 27.3477C117.195 27.8424 117.273 28.4512 117.273 29.1738V36H114.91V29.1641C114.91 28.6562 114.835 28.2559 114.686 27.9629C114.542 27.6634 114.331 27.4518 114.051 27.3281C113.777 27.1979 113.436 27.1328 113.025 27.1328C112.622 27.1328 112.26 27.2174 111.941 27.3867C111.622 27.556 111.352 27.7871 111.131 28.0801C110.916 28.373 110.75 28.7116 110.633 29.0957C110.516 29.4798 110.457 29.89 110.457 30.3262ZM127.527 33.6562L129.969 25.4336H131.473L131.062 27.8945L128.602 36H127.254L127.527 33.6562ZM126.092 25.4336L127.996 33.6953L128.152 36H126.648L123.787 25.4336H126.092ZM133.758 33.5977L135.604 25.4336H137.898L135.047 36H133.543L133.758 33.5977ZM131.727 25.4336L134.139 33.5586L134.441 36H133.094L130.604 27.8848L130.193 25.4336H131.727ZM142.02 25.4336V36H139.656V25.4336H142.02ZM139.5 22.6602C139.5 22.3021 139.617 22.0059 139.852 21.7715C140.092 21.5306 140.424 21.4102 140.848 21.4102C141.264 21.4102 141.593 21.5306 141.834 21.7715C142.075 22.0059 142.195 22.3021 142.195 22.6602C142.195 23.0117 142.075 23.3047 141.834 23.5391C141.593 23.7734 141.264 23.8906 140.848 23.8906C140.424 23.8906 140.092 23.7734 139.852 23.5391C139.617 23.3047 139.5 23.0117 139.5 22.6602ZM149.441 25.4336V27.1523H143.484V25.4336H149.441ZM145.203 22.8457H147.557V33.0801C147.557 33.4056 147.602 33.6562 147.693 33.832C147.791 34.0013 147.924 34.1152 148.094 34.1738C148.263 34.2324 148.462 34.2617 148.689 34.2617C148.852 34.2617 149.008 34.252 149.158 34.2324C149.308 34.2129 149.428 34.1934 149.52 34.1738L149.529 35.9707C149.334 36.0293 149.106 36.0814 148.846 36.127C148.592 36.1725 148.299 36.1953 147.967 36.1953C147.426 36.1953 146.948 36.1009 146.531 35.9121C146.115 35.7168 145.789 35.401 145.555 34.9648C145.32 34.5286 145.203 33.9492 145.203 33.2266V22.8457ZM153.582 21V36H151.238V21H153.582ZM153.172 30.3262L152.41 30.3164C152.417 29.5872 152.518 28.9134 152.713 28.2949C152.915 27.6764 153.195 27.1393 153.553 26.6836C153.917 26.2214 154.354 25.8665 154.861 25.6191C155.369 25.3652 155.932 25.2383 156.551 25.2383C157.072 25.2383 157.54 25.3099 157.957 25.4531C158.38 25.5964 158.745 25.8275 159.051 26.1465C159.357 26.459 159.588 26.8691 159.744 27.377C159.907 27.8783 159.988 28.4902 159.988 29.2129V36H157.625V29.1934C157.625 28.6855 157.55 28.2819 157.4 27.9824C157.257 27.6829 157.046 27.4681 156.766 27.3379C156.486 27.2012 156.144 27.1328 155.74 27.1328C155.317 27.1328 154.943 27.2174 154.617 27.3867C154.298 27.556 154.031 27.7871 153.816 28.0801C153.602 28.373 153.439 28.7116 153.328 29.0957C153.224 29.4798 153.172 29.89 153.172 30.3262ZM178.504 28.7344V34.1641C178.302 34.431 177.986 34.724 177.557 35.043C177.133 35.3555 176.57 35.6257 175.867 35.8535C175.164 36.0814 174.288 36.1953 173.24 36.1953C172.348 36.1953 171.531 36.0456 170.789 35.7461C170.047 35.4401 169.406 34.9941 168.865 34.4082C168.331 33.8223 167.918 33.1094 167.625 32.2695C167.332 31.4232 167.186 30.4596 167.186 29.3789V28.3926C167.186 27.3184 167.319 26.3613 167.586 25.5215C167.859 24.6751 168.25 23.959 168.758 23.373C169.266 22.7871 169.878 22.3444 170.594 22.0449C171.316 21.7389 172.133 21.5859 173.045 21.5859C174.21 21.5859 175.174 21.7812 175.936 22.1719C176.704 22.556 177.296 23.0898 177.713 23.7734C178.13 24.457 178.393 25.2383 178.504 26.1172H176.102C176.023 25.6224 175.87 25.1797 175.643 24.7891C175.421 24.3984 175.102 24.0924 174.686 23.8711C174.275 23.6432 173.742 23.5293 173.084 23.5293C172.518 23.5293 172.02 23.6367 171.59 23.8516C171.16 24.0664 170.802 24.3822 170.516 24.7988C170.236 25.2155 170.024 25.7233 169.881 26.3223C169.738 26.9212 169.666 27.6048 169.666 28.373V29.3789C169.666 30.1602 169.747 30.8535 169.91 31.459C170.079 32.0645 170.32 32.5755 170.633 32.9922C170.952 33.4089 171.339 33.7246 171.795 33.9395C172.251 34.1478 172.765 34.252 173.338 34.252C173.898 34.252 174.357 34.2064 174.715 34.1152C175.073 34.0176 175.356 33.9036 175.564 33.7734C175.779 33.6367 175.945 33.5065 176.062 33.3828V30.5605H173.104V28.7344H178.504ZM180.535 30.834V30.6094C180.535 29.8477 180.646 29.1413 180.867 28.4902C181.089 27.8327 181.408 27.263 181.824 26.7812C182.247 26.293 182.762 25.9154 183.367 25.6484C183.979 25.375 184.669 25.2383 185.438 25.2383C186.212 25.2383 186.902 25.375 187.508 25.6484C188.12 25.9154 188.637 26.293 189.061 26.7812C189.484 27.263 189.806 27.8327 190.027 28.4902C190.249 29.1413 190.359 29.8477 190.359 30.6094V30.834C190.359 31.5957 190.249 32.3021 190.027 32.9531C189.806 33.6042 189.484 34.1738 189.061 34.6621C188.637 35.1439 188.123 35.5215 187.518 35.7949C186.912 36.0618 186.225 36.1953 185.457 36.1953C184.682 36.1953 183.989 36.0618 183.377 35.7949C182.771 35.5215 182.257 35.1439 181.834 34.6621C181.411 34.1738 181.089 33.6042 180.867 32.9531C180.646 32.3021 180.535 31.5957 180.535 30.834ZM182.889 30.6094V30.834C182.889 31.3092 182.938 31.7585 183.035 32.1816C183.133 32.6048 183.286 32.9759 183.494 33.2949C183.702 33.6139 183.969 33.8646 184.295 34.0469C184.62 34.2292 185.008 34.3203 185.457 34.3203C185.893 34.3203 186.271 34.2292 186.59 34.0469C186.915 33.8646 187.182 33.6139 187.391 33.2949C187.599 32.9759 187.752 32.6048 187.85 32.1816C187.954 31.7585 188.006 31.3092 188.006 30.834V30.6094C188.006 30.1406 187.954 29.6979 187.85 29.2812C187.752 28.8581 187.596 28.4837 187.381 28.1582C187.173 27.8327 186.906 27.5788 186.58 27.3965C186.261 27.2077 185.88 27.1133 185.438 27.1133C184.995 27.1133 184.611 27.2077 184.285 27.3965C183.966 27.5788 183.702 27.8327 183.494 28.1582C183.286 28.4837 183.133 28.8581 183.035 29.2812C182.938 29.6979 182.889 30.1406 182.889 30.6094ZM191.883 30.834V30.6094C191.883 29.8477 191.993 29.1413 192.215 28.4902C192.436 27.8327 192.755 27.263 193.172 26.7812C193.595 26.293 194.109 25.9154 194.715 25.6484C195.327 25.375 196.017 25.2383 196.785 25.2383C197.56 25.2383 198.25 25.375 198.855 25.6484C199.467 25.9154 199.985 26.293 200.408 26.7812C200.831 27.263 201.154 27.8327 201.375 28.4902C201.596 29.1413 201.707 29.8477 201.707 30.6094V30.834C201.707 31.5957 201.596 32.3021 201.375 32.9531C201.154 33.6042 200.831 34.1738 200.408 34.6621C199.985 35.1439 199.471 35.5215 198.865 35.7949C198.26 36.0618 197.573 36.1953 196.805 36.1953C196.03 36.1953 195.337 36.0618 194.725 35.7949C194.119 35.5215 193.605 35.1439 193.182 34.6621C192.758 34.1738 192.436 33.6042 192.215 32.9531C191.993 32.3021 191.883 31.5957 191.883 30.834ZM194.236 30.6094V30.834C194.236 31.3092 194.285 31.7585 194.383 32.1816C194.48 32.6048 194.633 32.9759 194.842 33.2949C195.05 33.6139 195.317 33.8646 195.643 34.0469C195.968 34.2292 196.355 34.3203 196.805 34.3203C197.241 34.3203 197.618 34.2292 197.938 34.0469C198.263 33.8646 198.53 33.6139 198.738 33.2949C198.947 32.9759 199.1 32.6048 199.197 32.1816C199.301 31.7585 199.354 31.3092 199.354 30.834V30.6094C199.354 30.1406 199.301 29.6979 199.197 29.2812C199.1 28.8581 198.943 28.4837 198.729 28.1582C198.52 27.8327 198.253 27.5788 197.928 27.3965C197.609 27.2077 197.228 27.1133 196.785 27.1133C196.342 27.1133 195.958 27.2077 195.633 27.3965C195.314 27.5788 195.05 27.8327 194.842 28.1582C194.633 28.4837 194.48 28.8581 194.383 29.2812C194.285 29.6979 194.236 30.1406 194.236 30.6094ZM210.447 25.4336H212.586V35.707C212.586 36.6576 212.384 37.4648 211.98 38.1289C211.577 38.793 211.014 39.2975 210.291 39.6426C209.568 39.9941 208.732 40.1699 207.781 40.1699C207.378 40.1699 206.928 40.1113 206.434 39.9941C205.945 39.877 205.47 39.6882 205.008 39.4277C204.552 39.1738 204.171 38.8385 203.865 38.4219L204.969 37.0352C205.346 37.4844 205.763 37.8132 206.219 38.0215C206.674 38.2298 207.153 38.334 207.654 38.334C208.195 38.334 208.654 38.2331 209.031 38.0312C209.415 37.8359 209.712 37.5462 209.92 37.1621C210.128 36.778 210.232 36.3092 210.232 35.7559V27.8262L210.447 25.4336ZM203.27 30.834V30.6289C203.27 29.8281 203.367 29.099 203.562 28.4414C203.758 27.7773 204.038 27.2077 204.402 26.7324C204.767 26.2507 205.21 25.8828 205.73 25.6289C206.251 25.3685 206.84 25.2383 207.498 25.2383C208.182 25.2383 208.764 25.362 209.246 25.6094C209.734 25.8568 210.141 26.2116 210.467 26.6738C210.792 27.1296 211.046 27.6764 211.229 28.3145C211.417 28.946 211.557 29.6491 211.648 30.4238V31.0781C211.564 31.8333 211.421 32.5234 211.219 33.1484C211.017 33.7734 210.75 34.3138 210.418 34.7695C210.086 35.2253 209.676 35.5768 209.188 35.8242C208.706 36.0716 208.136 36.1953 207.479 36.1953C206.834 36.1953 206.251 36.0618 205.73 35.7949C205.216 35.528 204.773 35.1536 204.402 34.6719C204.038 34.1901 203.758 33.6237 203.562 32.9727C203.367 32.3151 203.27 31.6022 203.27 30.834ZM205.623 30.6289V30.834C205.623 31.3158 205.669 31.765 205.76 32.1816C205.857 32.5983 206.004 32.9661 206.199 33.2852C206.401 33.5977 206.655 33.8451 206.961 34.0273C207.273 34.2031 207.641 34.291 208.064 34.291C208.618 34.291 209.07 34.1738 209.422 33.9395C209.78 33.7051 210.053 33.3893 210.242 32.9922C210.438 32.5885 210.574 32.1393 210.652 31.6445V29.877C210.613 29.4928 210.532 29.1348 210.408 28.8027C210.291 28.4707 210.132 28.181 209.93 27.9336C209.728 27.6797 209.474 27.4844 209.168 27.3477C208.862 27.2044 208.501 27.1328 208.084 27.1328C207.661 27.1328 207.293 27.224 206.98 27.4062C206.668 27.5885 206.411 27.8392 206.209 28.1582C206.014 28.4772 205.867 28.8483 205.77 29.2715C205.672 29.6947 205.623 30.1471 205.623 30.6289ZM217.547 21V36H215.184V21H217.547ZM224.783 36.1953C224.002 36.1953 223.296 36.0684 222.664 35.8145C222.039 35.554 221.505 35.1927 221.062 34.7305C220.626 34.2682 220.291 33.7246 220.057 33.0996C219.822 32.4746 219.705 31.8008 219.705 31.0781V30.6875C219.705 29.8607 219.826 29.112 220.066 28.4414C220.307 27.7708 220.643 27.1979 221.072 26.7227C221.502 26.2409 222.01 25.873 222.596 25.6191C223.182 25.3652 223.816 25.2383 224.5 25.2383C225.255 25.2383 225.916 25.3652 226.482 25.6191C227.049 25.873 227.518 26.2311 227.889 26.6934C228.266 27.1491 228.546 27.6927 228.729 28.3242C228.917 28.9557 229.012 29.6523 229.012 30.4141V31.4199H220.848V29.7305H226.688V29.5449C226.674 29.1217 226.59 28.7246 226.434 28.3535C226.284 27.9824 226.053 27.6829 225.74 27.4551C225.428 27.2272 225.011 27.1133 224.49 27.1133C224.1 27.1133 223.751 27.1979 223.445 27.3672C223.146 27.5299 222.895 27.7676 222.693 28.0801C222.492 28.3926 222.335 28.7702 222.225 29.2129C222.12 29.6491 222.068 30.1406 222.068 30.6875V31.0781C222.068 31.5404 222.13 31.9701 222.254 32.3672C222.384 32.7578 222.573 33.0996 222.82 33.3926C223.068 33.6855 223.367 33.9167 223.719 34.0859C224.07 34.2487 224.471 34.3301 224.92 34.3301C225.486 34.3301 225.991 34.2161 226.434 33.9883C226.876 33.7604 227.26 33.4382 227.586 33.0215L228.826 34.2227C228.598 34.5547 228.302 34.8737 227.938 35.1797C227.573 35.4792 227.127 35.7233 226.6 35.9121C226.079 36.1009 225.473 36.1953 224.783 36.1953Z" fill="black" fill-opacity="0.54"/>
</g>
<defs>
<filter id="filter0_dd_6073_190" x="0" y="0" width="351" height="62" filterUnits="userSpaceOnUse" color-interpolation-filters="sRGB">
<feFlood flood-opacity="0" result="BackgroundImageFix"/>
<feColorMatrix in="SourceAlpha" type="matrix" values="0 0 0 0 0 0 0 0 0 0 0 0 0 0 0 0 0 0 127 0" result="hardAlpha"/>
<feOffset dy="2"/>
<feGaussianBlur stdDeviation="1.5"/>
<feColorMatrix type="matrix" values="0 0 0 0 0 0 0 0 0 0 0 0 0 0 0 0 0 0 0.168 0"/>
<feBlend mode="normal" in2="BackgroundImageFix" result="effect1_dropShadow_6073_190"/>
<feColorMatrix in="SourceAlpha" type="matrix" values="0 0 0 0 0 0 0 0 0 0 0 0 0 0 0 0 0 0 127 0" result="hardAlpha"/>
<feOffset/>
<feGaussianBlur stdDeviation="1.5"/>
<feColorMatrix type="matrix" values="0 0 0 0 0 0 0 0 0 0 0 0 0 0 0 0 0 0 0.084 0"/>
<feBlend mode="normal" in2="effect1_dropShadow_6073_190" result="effect2_dropShadow_6073_190"/>
<feBlend mode="normal" in="SourceGraphic" in2="effect2_dropShadow_6073_190" result="shape"/>
</filter>
</defs>
</svg>
